<svg width="34" height="33" viewBox="0 0 34 33" fill="none" xmlns="http://www.w3.org/2000/svg">
<path d="M31.88 32H23.2L15.48 18.16L13.72 17.08L14.72 15.12H16.56C18 15.12 19.1333 14.68 19.96 13.8C20.7867 12.92 21.2 11.68 21.2 10.08C21.2 8.21333 20.6933 6.69333 19.68 5.52C18.6933 4.32 17.24 3.72 15.32 3.72C14.12 3.72 13 4.09333 11.96 4.84V28.16L16.4 29.44L15.12 32.04H0.96V29.8L4.72 26.64V4.44L0.28 3.2L1.6 0.599999H8.24C10.56 0.599999 12.84 0.519999 15.08 0.36C16.68 0.253333 17.88 0.199999 18.68 0.199999C20.7333 0.199999 22.5467 0.573333 24.12 1.32C25.72 2.04 26.9467 3.02667 27.8 4.28C28.68 5.53333 29.12 6.93333 29.12 8.48C29.12 10.3467 28.2933 12.08 26.64 13.68C24.9867 15.28 22.9733 16.48 20.6 17.28L23.8 18.2L29 27.48L33.16 29.4L31.88 32Z" fill="white"/>
</svg>
