<svg width="113" height="36" viewBox="0 0 113 36" fill="none" xmlns="http://www.w3.org/2000/svg">
<path d="M31.88 35H23.2L15.48 21.16L13.72 20.08L14.72 18.12H16.56C18 18.12 19.1333 17.68 19.96 16.8C20.7867 15.92 21.2 14.68 21.2 13.08C21.2 11.2133 20.6933 9.69333 19.68 8.52C18.6933 7.32 17.24 6.72 15.32 6.72C14.12 6.72 13 7.09333 11.96 7.84V31.16L16.4 32.44L15.12 35.04H0.96V32.8L4.72 29.64V7.44L0.28 6.2L1.6 3.6H8.24C10.56 3.6 12.84 3.52 15.08 3.36C16.68 3.25333 17.88 3.2 18.68 3.2C20.7333 3.2 22.5467 3.57333 24.12 4.32C25.72 5.04 26.9467 6.02667 27.8 7.28C28.68 8.53333 29.12 9.93333 29.12 11.48C29.12 13.3467 28.2933 15.08 26.64 16.68C24.9867 18.28 22.9733 19.48 20.6 20.28L23.8 21.2L29 30.48L33.16 32.4L31.88 35ZM57.6672 35H48.5472V31.52L44.0272 35.08C43.4939 35.2933 42.8272 35.4 42.0272 35.4C39.4672 35.4 37.6139 34.7733 36.4672 33.52C35.3472 32.2667 34.7872 30.76 34.7872 29C34.7872 27.96 35.1072 26.9467 35.7472 25.96C36.3872 24.9467 37.3072 24.0133 38.5072 23.16H48.5472V22.48C48.5472 21.0133 48.1472 19.9333 47.3472 19.24C46.5472 18.5467 45.4805 18.2 44.1472 18.2C42.2805 18.2 39.8405 18.9333 36.8272 20.4L35.6272 18.12L41.1872 13.64C42.5472 13.24 44.1339 13.04 45.9472 13.04C48.9339 13.04 51.2405 13.72 52.8672 15.08C54.5205 16.44 55.3472 18.4133 55.3472 21V31L58.9472 32.4L57.6672 35ZM44.0672 30.04C45.4272 30.04 46.9205 29.48 48.5472 28.36V25.8H42.1072C41.8939 26.12 41.7339 26.4267 41.6272 26.72C41.5472 26.9867 41.5072 27.2933 41.5072 27.64C41.5072 28.3067 41.7339 28.8667 42.1872 29.32C42.6672 29.7733 43.2939 30 44.0672 30V30.04ZM78.4688 28.2L80.1088 24.68L82.3088 25.32V35.72L79.1088 35H61.9888V32.48L74.2688 20.24H66.1488L64.6288 23.4L62.4288 22.72V12.72L65.6288 13.44H82.7488V15.96L70.4688 28.2H78.4688ZM99.61 35H86.97V32.76L90.53 29.76V20.48L86.97 18.12V15.88L94.81 12.68H97.33V31.2L100.93 32.4L99.61 35ZM93.89 0.639999C95.0367 0.639999 95.97 1.01333 96.69 1.76C97.4367 2.48 97.81 3.38667 97.81 4.48C97.81 5.25333 97.5433 5.97333 97.01 6.64C96.4767 7.30667 95.81 7.84 95.01 8.24C94.21 8.64 93.4367 8.84 92.69 8.84C91.57 8.84 90.6367 8.48 89.89 7.76C89.17 7.01333 88.81 6.09333 88.81 5C88.81 4.22666 89.0767 3.50667 89.61 2.84C90.1433 2.17333 90.7967 1.64 91.57 1.24C92.37 0.839999 93.1433 0.639999 93.89 0.639999ZM108.778 27.16C109.925 27.16 110.858 27.5333 111.578 28.28C112.325 29.0267 112.698 29.9467 112.698 31.04C112.698 31.8133 112.431 32.5333 111.898 33.2C111.365 33.8667 110.698 34.4 109.898 34.8C109.098 35.2 108.325 35.4 107.578 35.4C106.458 35.4 105.525 35.04 104.778 34.32C104.058 33.5733 103.698 32.6533 103.698 31.56C103.698 30.7867 103.965 30.0667 104.498 29.4C105.031 28.7067 105.685 28.16 106.458 27.76C107.258 27.36 108.031 27.16 108.778 27.16Z" fill="white"/>
</svg>
